<mxfile host="65bd71144e">
    <diagram id="4UgXzJSv0fykHlwGZJck" name="Page-1">
        <mxGraphModel dx="601" dy="469" grid="1" gridSize="10" guides="1" tooltips="1" connect="1" arrows="1" fold="1" page="1" pageScale="1" pageWidth="850" pageHeight="1100" background="none" math="0" shadow="0">
            <root>
                <mxCell id="0"/>
                <mxCell id="1" parent="0"/>
                <mxCell id="113" style="edgeStyle=none;html=1;fontSize=12;endArrow=none;endFill=0;exitX=0.915;exitY=0.004;exitDx=0;exitDy=0;exitPerimeter=0;startArrow=none;startFill=0;" parent="1" source="2" target="112" edge="1">
                    <mxGeometry relative="1" as="geometry">
                        <Array as="points">
                            <mxPoint x="540" y="200"/>
                            <mxPoint x="640" y="200"/>
                            <mxPoint x="640" y="140"/>
                        </Array>
                    </mxGeometry>
                </mxCell>
                <mxCell id="114" style="edgeStyle=none;html=1;exitX=1;exitY=0.25;exitDx=0;exitDy=0;fontSize=12;endArrow=none;endFill=0;entryX=0.5;entryY=1;entryDx=0;entryDy=0;" parent="1" source="2" target="112" edge="1">
                    <mxGeometry relative="1" as="geometry">
                        <mxPoint x="720" y="220.25" as="targetPoint"/>
                        <Array as="points">
                            <mxPoint x="720" y="220"/>
                        </Array>
                    </mxGeometry>
                </mxCell>
                <mxCell id="2" value="User" style="whiteSpace=wrap;html=1;align=center;fontSize=12;" parent="1" vertex="1">
                    <mxGeometry x="430" y="210" width="100" height="40" as="geometry"/>
                </mxCell>
                <mxCell id="6" style="edgeStyle=none;html=1;endArrow=none;endFill=0;fontSize=12;" parent="1" source="4" target="2" edge="1">
                    <mxGeometry relative="1" as="geometry"/>
                </mxCell>
                <mxCell id="4" value="E-Mail address" style="ellipse;whiteSpace=wrap;html=1;align=center;fontSize=12;fontStyle=4" parent="1" vertex="1">
                    <mxGeometry x="250" y="160" width="100" height="40" as="geometry"/>
                </mxCell>
                <mxCell id="8" style="edgeStyle=none;html=1;endArrow=none;endFill=0;fontSize=12;" parent="1" source="7" target="2" edge="1">
                    <mxGeometry relative="1" as="geometry"/>
                </mxCell>
                <mxCell id="12" style="edgeStyle=none;html=1;endArrow=none;endFill=0;fontSize=12;" parent="1" source="7" target="9" edge="1">
                    <mxGeometry relative="1" as="geometry"/>
                </mxCell>
                <mxCell id="13" style="edgeStyle=none;html=1;endArrow=none;endFill=0;fontSize=12;" parent="1" source="7" target="10" edge="1">
                    <mxGeometry relative="1" as="geometry"/>
                </mxCell>
                <mxCell id="14" style="edgeStyle=none;html=1;endArrow=none;endFill=0;fontSize=12;" parent="1" source="7" target="11" edge="1">
                    <mxGeometry relative="1" as="geometry"/>
                </mxCell>
                <mxCell id="7" value="&lt;span style=&quot;border-bottom: 1px dotted; font-size: 12px;&quot;&gt;Name&lt;/span&gt;" style="ellipse;whiteSpace=wrap;html=1;align=center;fontStyle=0;fontSize=12;" parent="1" vertex="1">
                    <mxGeometry x="390" y="60" width="100" height="40" as="geometry"/>
                </mxCell>
                <mxCell id="9" value="First Name" style="ellipse;whiteSpace=wrap;html=1;align=center;fontSize=12;" parent="1" vertex="1">
                    <mxGeometry x="280" y="70" width="100" height="40" as="geometry"/>
                </mxCell>
                <mxCell id="10" value="Middle Name" style="ellipse;whiteSpace=wrap;html=1;align=center;fontSize=12;" parent="1" vertex="1">
                    <mxGeometry x="320" y="20" width="100" height="40" as="geometry"/>
                </mxCell>
                <mxCell id="11" value="Last Name" style="ellipse;whiteSpace=wrap;html=1;align=center;fontSize=12;" parent="1" vertex="1">
                    <mxGeometry x="430" y="10" width="100" height="40" as="geometry"/>
                </mxCell>
                <mxCell id="17" style="edgeStyle=none;html=1;fontSize=12;endArrow=none;endFill=0;" parent="1" source="16" target="2" edge="1">
                    <mxGeometry relative="1" as="geometry"/>
                </mxCell>
                <mxCell id="16" value="Pronouns" style="ellipse;whiteSpace=wrap;html=1;align=center;fontSize=12;" parent="1" vertex="1">
                    <mxGeometry x="470" y="100" width="100" height="40" as="geometry"/>
                </mxCell>
                <mxCell id="82" value="" style="edgeStyle=none;html=1;fontSize=12;endArrow=none;endFill=0;" parent="1" source="18" target="81" edge="1">
                    <mxGeometry relative="1" as="geometry"/>
                </mxCell>
                <mxCell id="93" style="edgeStyle=none;html=1;fontSize=12;endArrow=none;endFill=0;" parent="1" source="18" target="92" edge="1">
                    <mxGeometry relative="1" as="geometry">
                        <Array as="points">
                            <mxPoint x="300" y="520"/>
                            <mxPoint x="340" y="520"/>
                        </Array>
                    </mxGeometry>
                </mxCell>
                <mxCell id="18" value="Post" style="whiteSpace=wrap;html=1;align=center;fontSize=12;" parent="1" vertex="1">
                    <mxGeometry x="250" y="558" width="100" height="40" as="geometry"/>
                </mxCell>
                <mxCell id="35" style="edgeStyle=none;html=1;fontSize=12;endArrow=none;endFill=0;" parent="1" source="19" target="31" edge="1">
                    <mxGeometry relative="1" as="geometry"/>
                </mxCell>
                <mxCell id="19" value="Poetry" style="whiteSpace=wrap;html=1;align=center;fontSize=12;" parent="1" vertex="1">
                    <mxGeometry x="570" y="558" width="100" height="40" as="geometry"/>
                </mxCell>
                <mxCell id="24" style="edgeStyle=none;html=1;fontSize=12;endArrow=none;endFill=0;" parent="1" source="20" target="23" edge="1">
                    <mxGeometry relative="1" as="geometry"/>
                </mxCell>
                <mxCell id="29" style="edgeStyle=none;html=1;fontSize=12;endArrow=none;endFill=0;" parent="1" source="20" target="27" edge="1">
                    <mxGeometry relative="1" as="geometry"/>
                </mxCell>
                <mxCell id="30" style="edgeStyle=none;html=1;fontSize=12;endArrow=none;endFill=0;" parent="1" source="20" target="28" edge="1">
                    <mxGeometry relative="1" as="geometry"/>
                </mxCell>
                <mxCell id="20" value="EmailQueue" style="whiteSpace=wrap;html=1;align=center;fontSize=12;" parent="1" vertex="1">
                    <mxGeometry x="980" y="210" width="100" height="40" as="geometry"/>
                </mxCell>
                <mxCell id="25" style="edgeStyle=none;html=1;fontSize=12;endArrow=none;endFill=0;" parent="1" source="22" target="20" edge="1">
                    <mxGeometry relative="1" as="geometry"/>
                </mxCell>
                <mxCell id="26" style="edgeStyle=none;html=1;fontSize=12;endArrow=classic;endFill=1;" parent="1" source="22" target="2" edge="1">
                    <mxGeometry relative="1" as="geometry"/>
                </mxCell>
                <mxCell id="22" value="Recipient" style="shape=rhombus;perimeter=rhombusPerimeter;whiteSpace=wrap;html=1;align=center;fontSize=12;" parent="1" vertex="1">
                    <mxGeometry x="750" y="200" width="120" height="60" as="geometry"/>
                </mxCell>
                <mxCell id="23" value="Id" style="ellipse;whiteSpace=wrap;html=1;align=center;fontStyle=4;fontSize=12;" parent="1" vertex="1">
                    <mxGeometry x="890" y="140" width="100" height="40" as="geometry"/>
                </mxCell>
                <mxCell id="27" value="Title" style="ellipse;whiteSpace=wrap;html=1;align=center;fontSize=12;" parent="1" vertex="1">
                    <mxGeometry x="1010" y="120" width="100" height="40" as="geometry"/>
                </mxCell>
                <mxCell id="28" value="Content" style="ellipse;whiteSpace=wrap;html=1;align=center;fontSize=12;" parent="1" vertex="1">
                    <mxGeometry x="1110" y="150" width="100" height="40" as="geometry"/>
                </mxCell>
                <mxCell id="31" value="Id" style="ellipse;whiteSpace=wrap;html=1;align=center;fontStyle=4;fontSize=12;" parent="1" vertex="1">
                    <mxGeometry x="690" y="520" width="100" height="40" as="geometry"/>
                </mxCell>
                <mxCell id="33" style="edgeStyle=none;html=1;fontSize=12;endArrow=none;endFill=0;" parent="1" source="32" target="18" edge="1">
                    <mxGeometry relative="1" as="geometry"/>
                </mxCell>
                <mxCell id="32" value="Id" style="ellipse;whiteSpace=wrap;html=1;align=center;fontStyle=4;fontSize=12;" parent="1" vertex="1">
                    <mxGeometry x="130" y="460" width="100" height="40" as="geometry"/>
                </mxCell>
                <mxCell id="48" style="edgeStyle=none;html=1;fontSize=12;endArrow=none;endFill=0;" parent="1" source="37" target="47" edge="1">
                    <mxGeometry relative="1" as="geometry"/>
                </mxCell>
                <mxCell id="116" style="edgeStyle=none;html=1;fontSize=12;endArrow=none;endFill=0;entryX=0;entryY=1;entryDx=0;entryDy=0;" parent="1" source="37" target="115" edge="1">
                    <mxGeometry relative="1" as="geometry">
                        <Array as="points">
                            <mxPoint x="310" y="693"/>
                        </Array>
                    </mxGeometry>
                </mxCell>
                <mxCell id="37" value="Engagement" style="whiteSpace=wrap;html=1;align=center;fontSize=12;" parent="1" vertex="1">
                    <mxGeometry x="260" y="758" width="100" height="40" as="geometry"/>
                </mxCell>
                <mxCell id="41" style="edgeStyle=none;html=1;fontSize=12;endArrow=none;endFill=0;entryX=1;entryY=1;entryDx=0;entryDy=0;" parent="1" source="38" target="39" edge="1">
                    <mxGeometry relative="1" as="geometry">
                        <Array as="points">
                            <mxPoint x="630" y="693"/>
                        </Array>
                    </mxGeometry>
                </mxCell>
                <mxCell id="52" style="edgeStyle=none;html=1;entryX=1;entryY=0.5;entryDx=0;entryDy=0;fontSize=12;endArrow=none;endFill=0;" parent="1" source="38" target="51" edge="1">
                    <mxGeometry relative="1" as="geometry">
                        <Array as="points">
                            <mxPoint x="630" y="878"/>
                        </Array>
                    </mxGeometry>
                </mxCell>
                <mxCell id="38" value="Comment" style="whiteSpace=wrap;html=1;align=center;fontSize=12;" parent="1" vertex="1">
                    <mxGeometry x="580" y="758" width="100" height="40" as="geometry"/>
                </mxCell>
                <mxCell id="43" style="edgeStyle=none;html=1;fontSize=12;endArrow=classic;endFill=1;exitX=0.5;exitY=0;exitDx=0;exitDy=0;" parent="1" source="39" target="18" edge="1">
                    <mxGeometry relative="1" as="geometry">
                        <Array as="points">
                            <mxPoint x="520" y="578"/>
                        </Array>
                    </mxGeometry>
                </mxCell>
                <mxCell id="44" style="edgeStyle=none;html=1;fontSize=12;endArrow=classic;endFill=1;exitX=1;exitY=0;exitDx=0;exitDy=0;" parent="1" source="39" target="19" edge="1">
                    <mxGeometry relative="1" as="geometry">
                        <Array as="points">
                            <mxPoint x="620" y="663"/>
                        </Array>
                    </mxGeometry>
                </mxCell>
                <mxCell id="39" value="Commented on" style="shape=rhombus;perimeter=rhombusPerimeter;whiteSpace=wrap;html=1;align=center;fontSize=12;" parent="1" vertex="1">
                    <mxGeometry x="460" y="648" width="120" height="60" as="geometry"/>
                </mxCell>
                <mxCell id="49" style="edgeStyle=none;html=1;fontSize=12;endArrow=classic;endFill=1;entryX=0.403;entryY=1.046;entryDx=0;entryDy=0;entryPerimeter=0;" parent="1" source="47" target="2" edge="1">
                    <mxGeometry relative="1" as="geometry">
                        <Array as="points">
                            <mxPoint x="40" y="780"/>
                            <mxPoint x="40" y="320"/>
                            <mxPoint x="470" y="320"/>
                        </Array>
                    </mxGeometry>
                </mxCell>
                <mxCell id="47" value="Created by" style="shape=rhombus;perimeter=rhombusPerimeter;whiteSpace=wrap;html=1;align=center;fontSize=12;" parent="1" vertex="1">
                    <mxGeometry x="60" y="748" width="120" height="60" as="geometry"/>
                </mxCell>
                <mxCell id="53" style="edgeStyle=none;html=1;fontSize=12;endArrow=classic;endFill=1;entryX=0.25;entryY=1;entryDx=0;entryDy=0;startArrow=none;startFill=0;" parent="1" source="51" target="2" edge="1">
                    <mxGeometry relative="1" as="geometry">
                        <mxPoint x="510" y="310" as="targetPoint"/>
                        <Array as="points">
                            <mxPoint x="10" y="880"/>
                            <mxPoint x="10" y="290"/>
                            <mxPoint x="455" y="290"/>
                        </Array>
                    </mxGeometry>
                </mxCell>
                <mxCell id="51" value="Created by" style="shape=rhombus;perimeter=rhombusPerimeter;whiteSpace=wrap;html=1;align=center;fontSize=12;" parent="1" vertex="1">
                    <mxGeometry x="450" y="848" width="120" height="60" as="geometry"/>
                </mxCell>
                <mxCell id="55" value="" style="edgeStyle=none;html=1;fontSize=12;endArrow=none;endFill=0;" parent="1" source="54" target="38" edge="1">
                    <mxGeometry relative="1" as="geometry"/>
                </mxCell>
                <mxCell id="54" value="Id" style="ellipse;whiteSpace=wrap;html=1;align=center;fontStyle=4;fontSize=12;" parent="1" vertex="1">
                    <mxGeometry x="740" y="790" width="100" height="40" as="geometry"/>
                </mxCell>
                <mxCell id="58" style="edgeStyle=none;html=1;fontSize=12;endArrow=none;endFill=0;" parent="1" source="56" target="57" edge="1">
                    <mxGeometry relative="1" as="geometry">
                        <Array as="points">
                            <mxPoint x="750" y="320"/>
                        </Array>
                    </mxGeometry>
                </mxCell>
                <mxCell id="68" value="" style="edgeStyle=none;html=1;fontSize=12;endArrow=none;endFill=0;" parent="1" source="56" target="67" edge="1">
                    <mxGeometry relative="1" as="geometry"/>
                </mxCell>
                <mxCell id="56" value="WatchList" style="whiteSpace=wrap;html=1;align=center;fontSize=12;" parent="1" vertex="1">
                    <mxGeometry x="700" y="390" width="100" height="40" as="geometry"/>
                </mxCell>
                <mxCell id="59" style="edgeStyle=none;html=1;fontSize=12;endArrow=classic;endFill=1;entryX=1;entryY=0.75;entryDx=0;entryDy=0;entryPerimeter=0;" parent="1" source="57" target="2" edge="1">
                    <mxGeometry relative="1" as="geometry">
                        <Array as="points">
                            <mxPoint x="670" y="240"/>
                        </Array>
                    </mxGeometry>
                </mxCell>
                <mxCell id="57" value="Stalked" style="shape=rhombus;perimeter=rhombusPerimeter;whiteSpace=wrap;html=1;align=center;fontSize=12;" parent="1" vertex="1">
                    <mxGeometry x="610" y="290" width="120" height="60" as="geometry"/>
                </mxCell>
                <mxCell id="62" style="edgeStyle=none;html=1;fontSize=12;endArrow=none;endFill=0;" parent="1" source="60" target="56" edge="1">
                    <mxGeometry relative="1" as="geometry">
                        <Array as="points">
                            <mxPoint x="600" y="410"/>
                        </Array>
                    </mxGeometry>
                </mxCell>
                <mxCell id="64" style="edgeStyle=none;html=1;fontSize=12;endArrow=classic;endFill=1;" parent="1" source="60" edge="1">
                    <mxGeometry relative="1" as="geometry">
                        <mxPoint x="520" y="250" as="targetPoint"/>
                        <Array as="points">
                            <mxPoint x="520" y="370"/>
                        </Array>
                    </mxGeometry>
                </mxCell>
                <mxCell id="60" value="Stalker" style="shape=rhombus;perimeter=rhombusPerimeter;whiteSpace=wrap;html=1;align=center;fontSize=12;" parent="1" vertex="1">
                    <mxGeometry x="545" y="340" width="120" height="60" as="geometry"/>
                </mxCell>
                <mxCell id="61" value="Id" style="ellipse;whiteSpace=wrap;html=1;align=center;fontStyle=4;fontSize=12;" parent="1" vertex="1">
                    <mxGeometry x="180" y="808" width="100" height="40" as="geometry"/>
                </mxCell>
                <mxCell id="63" style="edgeStyle=none;html=1;fontSize=12;endArrow=none;endFill=0;" parent="1" source="37" target="61" edge="1">
                    <mxGeometry relative="1" as="geometry">
                        <mxPoint x="678" y="568" as="sourcePoint"/>
                        <mxPoint x="715.373408590503" y="552.4277464206239" as="targetPoint"/>
                    </mxGeometry>
                </mxCell>
                <mxCell id="71" value="" style="edgeStyle=none;html=1;fontSize=12;endArrow=none;endFill=0;" parent="1" source="67" target="69" edge="1">
                    <mxGeometry relative="1" as="geometry"/>
                </mxCell>
                <mxCell id="72" style="edgeStyle=none;html=1;fontSize=12;endArrow=none;endFill=0;" parent="1" source="67" target="70" edge="1">
                    <mxGeometry relative="1" as="geometry"/>
                </mxCell>
                <mxCell id="67" value="TimeInterval" style="ellipse;whiteSpace=wrap;html=1;align=center;fontSize=12;" parent="1" vertex="1">
                    <mxGeometry x="840" y="340" width="100" height="40" as="geometry"/>
                </mxCell>
                <mxCell id="69" value="From" style="ellipse;whiteSpace=wrap;html=1;align=center;fontSize=12;" parent="1" vertex="1">
                    <mxGeometry x="780" y="290" width="100" height="40" as="geometry"/>
                </mxCell>
                <mxCell id="70" value="Until" style="ellipse;whiteSpace=wrap;html=1;align=center;fontSize=12;" parent="1" vertex="1">
                    <mxGeometry x="900" y="290" width="100" height="40" as="geometry"/>
                </mxCell>
                <mxCell id="74" value="" style="edgeStyle=none;html=1;fontSize=12;endArrow=none;endFill=0;" parent="1" source="73" target="56" edge="1">
                    <mxGeometry relative="1" as="geometry"/>
                </mxCell>
                <mxCell id="73" value="Id" style="ellipse;whiteSpace=wrap;html=1;align=center;fontStyle=4;fontSize=12;" parent="1" vertex="1">
                    <mxGeometry x="840" y="410" width="100" height="40" as="geometry"/>
                </mxCell>
                <mxCell id="77" style="edgeStyle=none;html=1;endArrow=none;endFill=0;fontSize=12;" parent="1" source="75" target="2" edge="1">
                    <mxGeometry relative="1" as="geometry"/>
                </mxCell>
                <mxCell id="75" value="Watcher" style="ellipse;whiteSpace=wrap;html=1;align=center;fontSize=12;" parent="1" vertex="1">
                    <mxGeometry x="260" y="240" width="100" height="40" as="geometry"/>
                </mxCell>
                <mxCell id="86" style="edgeStyle=none;html=1;endArrow=none;endFill=0;fontSize=12;" parent="1" source="78" target="19" edge="1">
                    <mxGeometry relative="1" as="geometry"/>
                </mxCell>
                <mxCell id="78" value="Content" style="ellipse;whiteSpace=wrap;html=1;align=center;fontSize=12;" parent="1" vertex="1">
                    <mxGeometry x="760" y="568" width="100" height="40" as="geometry"/>
                </mxCell>
                <mxCell id="80" value="" style="edgeStyle=none;html=1;fontSize=12;endArrow=none;endFill=0;" parent="1" source="79" target="18" edge="1">
                    <mxGeometry relative="1" as="geometry"/>
                </mxCell>
                <mxCell id="79" value="Location" style="ellipse;whiteSpace=wrap;html=1;align=center;fontSize=12;" parent="1" vertex="1">
                    <mxGeometry x="90" y="518" width="100" height="40" as="geometry"/>
                </mxCell>
                <mxCell id="81" value="CreationDate" style="ellipse;whiteSpace=wrap;html=1;align=center;fontSize=12;" parent="1" vertex="1">
                    <mxGeometry x="80" y="568" width="100" height="40" as="geometry"/>
                </mxCell>
                <mxCell id="85" style="edgeStyle=none;html=1;fontSize=12;endArrow=none;endFill=0;" parent="1" source="83" target="18" edge="1">
                    <mxGeometry relative="1" as="geometry"/>
                </mxCell>
                <mxCell id="83" value="Content" style="ellipse;whiteSpace=wrap;html=1;align=center;fontSize=12;" parent="1" vertex="1">
                    <mxGeometry x="150" y="620" width="100" height="40" as="geometry"/>
                </mxCell>
                <mxCell id="88" style="edgeStyle=none;html=1;endArrow=none;endFill=0;" parent="1" source="87" target="19" edge="1">
                    <mxGeometry relative="1" as="geometry"/>
                </mxCell>
                <mxCell id="87" value="CreationDate" style="ellipse;whiteSpace=wrap;html=1;align=center;fontSize=12;" parent="1" vertex="1">
                    <mxGeometry x="660" y="620" width="100" height="40" as="geometry"/>
                </mxCell>
                <mxCell id="90" style="edgeStyle=none;html=1;endArrow=none;endFill=0;" parent="1" source="89" target="19" edge="1">
                    <mxGeometry relative="1" as="geometry">
                        <Array as="points">
                            <mxPoint x="620" y="470"/>
                        </Array>
                    </mxGeometry>
                </mxCell>
                <mxCell id="91" style="edgeStyle=none;html=1;endArrow=classic;endFill=1;entryX=0.75;entryY=1;entryDx=0;entryDy=0;" parent="1" source="89" target="2" edge="1">
                    <mxGeometry relative="1" as="geometry"/>
                </mxCell>
                <mxCell id="89" value="Created by" style="shape=rhombus;perimeter=rhombusPerimeter;whiteSpace=wrap;html=1;align=center;fontSize=12;" parent="1" vertex="1">
                    <mxGeometry x="445" y="440" width="120" height="60" as="geometry"/>
                </mxCell>
                <mxCell id="94" style="edgeStyle=none;html=1;fontSize=12;endArrow=classic;endFill=1;startArrow=none;" parent="1" edge="1">
                    <mxGeometry relative="1" as="geometry">
                        <mxPoint x="370" y="250" as="targetPoint"/>
                        <Array as="points"/>
                    </mxGeometry>
                </mxCell>
                <mxCell id="92" value="Created by" style="shape=rhombus;perimeter=rhombusPerimeter;whiteSpace=wrap;html=1;align=center;fontSize=12;" parent="1" vertex="1">
                    <mxGeometry x="280" y="440" width="120" height="60" as="geometry"/>
                </mxCell>
                <mxCell id="96" style="edgeStyle=none;html=1;endArrow=none;endFill=0;" parent="1" source="95" target="38" edge="1">
                    <mxGeometry relative="1" as="geometry"/>
                </mxCell>
                <mxCell id="95" value="CreationDate" style="ellipse;whiteSpace=wrap;html=1;align=center;fontSize=12;" parent="1" vertex="1">
                    <mxGeometry x="710" y="850" width="100" height="40" as="geometry"/>
                </mxCell>
                <mxCell id="98" style="edgeStyle=none;html=1;endArrow=none;endFill=0;" parent="1" source="97" target="38" edge="1">
                    <mxGeometry relative="1" as="geometry"/>
                </mxCell>
                <mxCell id="97" value="Content" style="ellipse;whiteSpace=wrap;html=1;align=center;fontSize=12;" parent="1" vertex="1">
                    <mxGeometry x="770" y="730" width="100" height="40" as="geometry"/>
                </mxCell>
                <mxCell id="102" style="edgeStyle=none;html=1;endArrow=none;endFill=0;" parent="1" source="101" target="37" edge="1">
                    <mxGeometry relative="1" as="geometry"/>
                </mxCell>
                <mxCell id="101" value="CreationDate" style="ellipse;whiteSpace=wrap;html=1;align=center;fontSize=12;" parent="1" vertex="1">
                    <mxGeometry x="310" y="810" width="100" height="40" as="geometry"/>
                </mxCell>
                <mxCell id="105" style="edgeStyle=none;html=1;fontSize=12;endArrow=none;endFill=0;" parent="1" source="103" target="2" edge="1">
                    <mxGeometry relative="1" as="geometry"/>
                </mxCell>
                <mxCell id="103" value="PasswordHash" style="ellipse;whiteSpace=wrap;html=1;align=center;fontSize=12;" parent="1" vertex="1">
                    <mxGeometry x="520" y="140" width="100" height="40" as="geometry"/>
                </mxCell>
                <mxCell id="107" value="" style="edgeStyle=none;html=1;fontSize=12;endArrow=none;endFill=0;" parent="1" source="106" target="20" edge="1">
                    <mxGeometry relative="1" as="geometry"/>
                </mxCell>
                <mxCell id="106" value="SentAt" style="ellipse;whiteSpace=wrap;html=1;align=center;fontSize=12;" parent="1" vertex="1">
                    <mxGeometry x="1140" y="210" width="100" height="40" as="geometry"/>
                </mxCell>
                <mxCell id="109" value="" style="edgeStyle=none;html=1;fontSize=12;endArrow=none;endFill=0;" parent="1" source="108" target="20" edge="1">
                    <mxGeometry relative="1" as="geometry"/>
                </mxCell>
                <mxCell id="108" value="CreatedAt" style="ellipse;whiteSpace=wrap;html=1;align=center;fontSize=12;" parent="1" vertex="1">
                    <mxGeometry x="1120" y="270" width="100" height="40" as="geometry"/>
                </mxCell>
                <mxCell id="111" style="edgeStyle=none;html=1;fontSize=12;endArrow=none;endFill=0;" parent="1" source="110" target="20" edge="1">
                    <mxGeometry relative="1" as="geometry"/>
                </mxCell>
                <mxCell id="110" value="Priority" style="ellipse;whiteSpace=wrap;html=1;align=center;fontSize=12;" parent="1" vertex="1">
                    <mxGeometry x="1050" y="320" width="100" height="40" as="geometry"/>
                </mxCell>
                <mxCell id="112" value="Following" style="shape=rhombus;perimeter=rhombusPerimeter;whiteSpace=wrap;html=1;align=center;fontSize=12;" parent="1" vertex="1">
                    <mxGeometry x="660" y="110" width="120" height="60" as="geometry"/>
                </mxCell>
                <mxCell id="117" style="edgeStyle=none;html=1;exitX=0;exitY=0;exitDx=0;exitDy=0;fontSize=12;endArrow=classic;endFill=1;" parent="1" source="115" target="18" edge="1">
                    <mxGeometry relative="1" as="geometry">
                        <Array as="points">
                            <mxPoint x="300" y="663"/>
                        </Array>
                    </mxGeometry>
                </mxCell>
                <mxCell id="118" style="edgeStyle=none;html=1;entryX=0;entryY=0.75;entryDx=0;entryDy=0;fontSize=12;endArrow=classic;endFill=1;" parent="1" source="115" target="19" edge="1">
                    <mxGeometry relative="1" as="geometry">
                        <Array as="points">
                            <mxPoint x="385" y="588"/>
                        </Array>
                    </mxGeometry>
                </mxCell>
                <mxCell id="115" value="Engaged with" style="shape=rhombus;perimeter=rhombusPerimeter;whiteSpace=wrap;html=1;align=center;fontSize=12;" parent="1" vertex="1">
                    <mxGeometry x="325" y="648" width="120" height="60" as="geometry"/>
                </mxCell>
                <mxCell id="124" value="" style="edgeStyle=none;html=1;fontSize=12;endArrow=classic;endFill=1;" parent="1" source="92" edge="1">
                    <mxGeometry relative="1" as="geometry">
                        <mxPoint x="490" y="250" as="targetPoint"/>
                        <Array as="points">
                            <mxPoint x="340" y="420"/>
                            <mxPoint x="490" y="420"/>
                        </Array>
                        <mxPoint x="340" y="440" as="sourcePoint"/>
                    </mxGeometry>
                </mxCell>
                <mxCell id="125" value="N" style="text;html=1;align=center;verticalAlign=middle;resizable=0;points=[];autosize=1;strokeColor=none;fillColor=none;" parent="1" vertex="1">
                    <mxGeometry x="299" y="528" width="30" height="30" as="geometry"/>
                </mxCell>
                <mxCell id="126" value="N" style="text;html=1;align=center;verticalAlign=middle;resizable=0;points=[];autosize=1;strokeColor=none;fillColor=none;" parent="1" vertex="1">
                    <mxGeometry x="588" y="527" width="30" height="30" as="geometry"/>
                </mxCell>
                <mxCell id="127" value="N" style="text;html=1;align=center;verticalAlign=middle;resizable=0;points=[];autosize=1;strokeColor=none;fillColor=none;" parent="1" vertex="1">
                    <mxGeometry x="599" y="727" width="30" height="30" as="geometry"/>
                </mxCell>
                <mxCell id="128" value="N" style="text;html=1;align=center;verticalAlign=middle;resizable=0;points=[];autosize=1;strokeColor=none;fillColor=none;" parent="1" vertex="1">
                    <mxGeometry x="309" y="728" width="30" height="30" as="geometry"/>
                </mxCell>
                <mxCell id="129" value="N" style="text;html=1;align=center;verticalAlign=middle;resizable=0;points=[];autosize=1;strokeColor=none;fillColor=none;" parent="1" vertex="1">
                    <mxGeometry x="599" y="797" width="30" height="30" as="geometry"/>
                </mxCell>
                <mxCell id="130" value="N" style="text;html=1;align=center;verticalAlign=middle;resizable=0;points=[];autosize=1;strokeColor=none;fillColor=none;" parent="1" vertex="1">
                    <mxGeometry x="230" y="748" width="30" height="30" as="geometry"/>
                </mxCell>
                <mxCell id="131" value="N" style="text;html=1;align=center;verticalAlign=middle;resizable=0;points=[];autosize=1;strokeColor=none;fillColor=none;" parent="1" vertex="1">
                    <mxGeometry x="670" y="410" width="30" height="30" as="geometry"/>
                </mxCell>
                <mxCell id="132" value="N" style="text;html=1;align=center;verticalAlign=middle;resizable=0;points=[];autosize=1;strokeColor=none;fillColor=none;" parent="1" vertex="1">
                    <mxGeometry x="750" y="360" width="30" height="30" as="geometry"/>
                </mxCell>
                <mxCell id="133" value="N" style="text;html=1;align=center;verticalAlign=middle;resizable=0;points=[];autosize=1;strokeColor=none;fillColor=none;" parent="1" vertex="1">
                    <mxGeometry x="950" y="230" width="30" height="30" as="geometry"/>
                </mxCell>
                <mxCell id="134" value="N" style="text;html=1;align=center;verticalAlign=middle;resizable=0;points=[];autosize=1;strokeColor=none;fillColor=none;" parent="1" vertex="1">
                    <mxGeometry x="530" y="200" width="30" height="30" as="geometry"/>
                </mxCell>
                <mxCell id="137" value="M" style="text;html=1;align=center;verticalAlign=middle;resizable=0;points=[];autosize=1;strokeColor=none;fillColor=none;" vertex="1" parent="1">
                    <mxGeometry x="530" y="180" width="30" height="30" as="geometry"/>
                </mxCell>
            </root>
        </mxGraphModel>
    </diagram>
</mxfile>